<mxfile host="app.diagrams.net" modified="2023-11-06T23:11:24.714Z" agent="Mozilla/5.0 (Windows NT 10.0; Win64; x64) AppleWebKit/537.36 (KHTML, like Gecko) Chrome/119.0.0.0 Safari/537.36" etag="uGddHss7lVW55p10gGjv" version="22.0.8" type="device">
  <diagram name="Page-1" id="7KJ-IEi9KXWlxXyNYdL5">
    <mxGraphModel dx="1050" dy="662" grid="1" gridSize="10" guides="1" tooltips="1" connect="1" arrows="1" fold="1" page="1" pageScale="1" pageWidth="850" pageHeight="1100" math="0" shadow="0">
      <root>
        <mxCell id="0" />
        <mxCell id="1" parent="0" />
        <mxCell id="zZnv519gP_v_NREQ_dhR-25" value="false" style="edgeStyle=orthogonalEdgeStyle;rounded=0;orthogonalLoop=1;jettySize=auto;html=1;entryX=1;entryY=0.5;entryDx=0;entryDy=0;exitX=1;exitY=0.5;exitDx=0;exitDy=0;" edge="1" parent="1" source="zZnv519gP_v_NREQ_dhR-5" target="zZnv519gP_v_NREQ_dhR-7">
          <mxGeometry relative="1" as="geometry">
            <mxPoint x="520" y="560" as="targetPoint" />
            <mxPoint x="465" y="340" as="sourcePoint" />
            <Array as="points">
              <mxPoint x="570" y="350" />
              <mxPoint x="570" y="540" />
            </Array>
          </mxGeometry>
        </mxCell>
        <mxCell id="zZnv519gP_v_NREQ_dhR-11" value="" style="edgeStyle=orthogonalEdgeStyle;rounded=0;orthogonalLoop=1;jettySize=auto;html=1;" edge="1" parent="1" source="zZnv519gP_v_NREQ_dhR-1" target="zZnv519gP_v_NREQ_dhR-3">
          <mxGeometry relative="1" as="geometry" />
        </mxCell>
        <mxCell id="zZnv519gP_v_NREQ_dhR-1" value="start" style="ellipse;whiteSpace=wrap;html=1;" vertex="1" parent="1">
          <mxGeometry x="365" y="30" width="120" height="80" as="geometry" />
        </mxCell>
        <mxCell id="zZnv519gP_v_NREQ_dhR-14" style="edgeStyle=orthogonalEdgeStyle;rounded=0;orthogonalLoop=1;jettySize=auto;html=1;entryX=0.5;entryY=0;entryDx=0;entryDy=0;" edge="1" parent="1" source="zZnv519gP_v_NREQ_dhR-3" target="zZnv519gP_v_NREQ_dhR-4">
          <mxGeometry relative="1" as="geometry" />
        </mxCell>
        <mxCell id="zZnv519gP_v_NREQ_dhR-3" value="a,b,c" style="shape=parallelogram;perimeter=parallelogramPerimeter;whiteSpace=wrap;html=1;fixedSize=1;" vertex="1" parent="1">
          <mxGeometry x="365" y="140" width="120" height="60" as="geometry" />
        </mxCell>
        <mxCell id="zZnv519gP_v_NREQ_dhR-15" style="edgeStyle=orthogonalEdgeStyle;rounded=0;orthogonalLoop=1;jettySize=auto;html=1;entryX=0.5;entryY=0;entryDx=0;entryDy=0;" edge="1" parent="1" source="zZnv519gP_v_NREQ_dhR-4" target="zZnv519gP_v_NREQ_dhR-5">
          <mxGeometry relative="1" as="geometry" />
        </mxCell>
        <mxCell id="zZnv519gP_v_NREQ_dhR-4" value="min=a" style="rounded=0;whiteSpace=wrap;html=1;" vertex="1" parent="1">
          <mxGeometry x="365" y="230" width="120" height="60" as="geometry" />
        </mxCell>
        <mxCell id="zZnv519gP_v_NREQ_dhR-20" value="true" style="edgeStyle=orthogonalEdgeStyle;rounded=0;orthogonalLoop=1;jettySize=auto;html=1;entryX=0.5;entryY=0;entryDx=0;entryDy=0;" edge="1" parent="1" source="zZnv519gP_v_NREQ_dhR-5" target="zZnv519gP_v_NREQ_dhR-6">
          <mxGeometry relative="1" as="geometry">
            <Array as="points">
              <mxPoint x="425" y="410" />
            </Array>
          </mxGeometry>
        </mxCell>
        <mxCell id="zZnv519gP_v_NREQ_dhR-5" value="min&amp;gt;b" style="rhombus;whiteSpace=wrap;html=1;" vertex="1" parent="1">
          <mxGeometry x="385" y="310" width="80" height="80" as="geometry" />
        </mxCell>
        <mxCell id="zZnv519gP_v_NREQ_dhR-21" style="edgeStyle=orthogonalEdgeStyle;rounded=0;orthogonalLoop=1;jettySize=auto;html=1;entryX=0.5;entryY=0;entryDx=0;entryDy=0;" edge="1" parent="1" source="zZnv519gP_v_NREQ_dhR-6" target="zZnv519gP_v_NREQ_dhR-7">
          <mxGeometry relative="1" as="geometry" />
        </mxCell>
        <mxCell id="zZnv519gP_v_NREQ_dhR-6" value="min=b" style="rounded=0;whiteSpace=wrap;html=1;" vertex="1" parent="1">
          <mxGeometry x="365" y="410" width="120" height="60" as="geometry" />
        </mxCell>
        <mxCell id="zZnv519gP_v_NREQ_dhR-22" value="true" style="edgeStyle=orthogonalEdgeStyle;rounded=0;orthogonalLoop=1;jettySize=auto;html=1;entryX=0.5;entryY=0;entryDx=0;entryDy=0;" edge="1" parent="1" source="zZnv519gP_v_NREQ_dhR-7" target="zZnv519gP_v_NREQ_dhR-8">
          <mxGeometry relative="1" as="geometry" />
        </mxCell>
        <mxCell id="zZnv519gP_v_NREQ_dhR-26" value="false" style="edgeStyle=orthogonalEdgeStyle;rounded=0;orthogonalLoop=1;jettySize=auto;html=1;entryX=0;entryY=0.5;entryDx=0;entryDy=0;" edge="1" parent="1" source="zZnv519gP_v_NREQ_dhR-7" target="zZnv519gP_v_NREQ_dhR-9">
          <mxGeometry relative="1" as="geometry">
            <mxPoint x="350" y="540" as="targetPoint" />
            <Array as="points">
              <mxPoint x="230" y="540" />
              <mxPoint x="230" y="720" />
            </Array>
          </mxGeometry>
        </mxCell>
        <mxCell id="zZnv519gP_v_NREQ_dhR-7" value="min&amp;gt;c" style="rhombus;whiteSpace=wrap;html=1;" vertex="1" parent="1">
          <mxGeometry x="385" y="500" width="80" height="80" as="geometry" />
        </mxCell>
        <mxCell id="zZnv519gP_v_NREQ_dhR-23" style="edgeStyle=orthogonalEdgeStyle;rounded=0;orthogonalLoop=1;jettySize=auto;html=1;entryX=0.5;entryY=0;entryDx=0;entryDy=0;" edge="1" parent="1" source="zZnv519gP_v_NREQ_dhR-8" target="zZnv519gP_v_NREQ_dhR-9">
          <mxGeometry relative="1" as="geometry" />
        </mxCell>
        <mxCell id="zZnv519gP_v_NREQ_dhR-8" value="min=c" style="rounded=0;whiteSpace=wrap;html=1;" vertex="1" parent="1">
          <mxGeometry x="365" y="600" width="120" height="60" as="geometry" />
        </mxCell>
        <mxCell id="zZnv519gP_v_NREQ_dhR-24" style="edgeStyle=orthogonalEdgeStyle;rounded=0;orthogonalLoop=1;jettySize=auto;html=1;entryX=0.5;entryY=0;entryDx=0;entryDy=0;" edge="1" parent="1" source="zZnv519gP_v_NREQ_dhR-9" target="zZnv519gP_v_NREQ_dhR-10">
          <mxGeometry relative="1" as="geometry" />
        </mxCell>
        <mxCell id="zZnv519gP_v_NREQ_dhR-9" value="out put min" style="shape=parallelogram;perimeter=parallelogramPerimeter;whiteSpace=wrap;html=1;fixedSize=1;" vertex="1" parent="1">
          <mxGeometry x="365" y="690" width="120" height="60" as="geometry" />
        </mxCell>
        <mxCell id="zZnv519gP_v_NREQ_dhR-10" value="end" style="ellipse;whiteSpace=wrap;html=1;" vertex="1" parent="1">
          <mxGeometry x="360" y="770" width="120" height="80" as="geometry" />
        </mxCell>
      </root>
    </mxGraphModel>
  </diagram>
</mxfile>
